<svg width="290" height="290" viewBox="0 0 290 290" fill="none" xmlns="http://www.w3.org/2000/svg">
<path d="M231.35 195.354C234.359 197.092 238.225 196.068 239.781 192.961C247.146 178.254 251 162.006 251 145.5C251 128.994 247.146 112.746 239.781 98.0387C238.225 94.9319 234.359 93.9083 231.35 95.6456C228.341 97.3829 227.331 101.222 228.862 104.341C235.136 117.126 238.417 131.203 238.417 145.5C238.417 159.797 235.136 173.874 228.862 186.658C227.331 189.778 228.341 193.617 231.35 195.354Z" fill="#31324D"/>
<path d="M237.241 107.64C240.456 106.32 242.009 102.635 240.501 99.5048C233.87 85.7368 224.329 73.5416 212.509 63.7776C199.07 52.6757 183.1 45.0595 166.014 41.6038C148.928 38.1481 131.254 38.9594 114.556 43.9659C97.8589 48.9724 82.654 58.0196 70.2882 70.306C57.9225 82.5925 48.7777 97.7389 43.6639 114.404C38.5501 131.069 37.6251 148.737 40.9709 165.845C44.3167 182.953 51.83 198.971 62.8452 212.482C72.533 224.364 84.6666 233.984 98.3916 240.703C101.512 242.231 105.207 240.701 106.547 237.496C107.887 234.29 106.363 230.624 103.255 229.071C91.4337 223.166 80.9772 214.809 72.5972 204.531C62.8896 192.624 56.2681 178.507 53.3195 163.43C50.3709 148.353 51.1861 132.782 55.6929 118.095C60.1996 103.408 68.2589 90.0598 79.1568 79.2318C90.0546 68.4038 103.455 60.4305 118.17 56.0183C132.885 51.6061 148.462 50.8911 163.52 53.9366C178.577 56.9821 192.651 63.6942 204.495 73.4783C214.72 81.9242 223.009 92.4342 228.838 104.293C230.371 107.411 234.027 108.959 237.241 107.64Z" fill="url(#paint0_linear_2_9031)"/>
<defs>
<linearGradient id="paint0_linear_2_9031" x1="125.501" y1="52" x2="42.501" y2="160" gradientUnits="userSpaceOnUse">
<stop stop-color="#FF004D"/>
<stop offset="1" stop-color="#0075FF" stop-opacity="0"/>
</linearGradient>
</defs>
</svg>
